<?xml version="1.0" encoding="utf-8"?>
<!-- Generator: Adobe Illustrator 21.0.0, SVG Export Plug-In . SVG Version: 6.00 Build 0)  -->
<svg version="1.1" id="Layer_1" xmlns="http://www.w3.org/2000/svg" xmlns:xlink="http://www.w3.org/1999/xlink" x="0px" y="0px"
	 viewBox="0 0 100 100" style="enable-background:new 0 0 100 100;" xml:space="preserve">
<style type="text/css">
	.st0{fill:#010101;}
	.st1{fill:#FFFFFF;}
</style>
<g>
	<path class="st0" d="M-184.2,143.6h-14.7c-2.2,0-4,1.8-4,4v32c0,2.2,1.8,4,4,4h14.7c2.2,0,4-1.8,4-4v-32
		C-180.2,145.4-182,143.6-184.2,143.6z M-198.8,144.9h14.7c1.5,0,2.7,1.2,2.7,2.7v4h-20v-4C-201.5,146.1-200.3,144.9-198.8,144.9z
		 M-181.5,152.9v24h-20v-24H-181.5z M-184.2,182.3h-14.7c-1.5,0-2.7-1.2-2.7-2.7v-1.3h20v1.3C-181.5,181.1-182.7,182.3-184.2,182.3z
		"/>
	<rect x="-192.8" y="179.6" class="st0" width="2.7" height="1.3"/>
	<rect x="-196.2" y="147.6" class="st0" width="1.3" height="1.3"/>
	<rect x="-193.5" y="147.6" class="st0" width="6.7" height="1.3"/>
</g>
<path class="st0" d="M-174.4,268.6L-174.4,268.6c0,0,0-0.1,0-0.1c0,0,0,0,0,0c0,0,0,0,0,0c0-0.1-0.1-0.1-0.1-0.1c0,0,0,0,0-0.1
	c0,0-0.1-0.1-0.1-0.1c0,0,0,0,0,0c0,0-0.1-0.1-0.2-0.1c-0.1,0-0.1,0-0.2,0h-32.8c-0.1,0-0.1,0-0.2,0c0,0-0.1,0-0.1,0
	c-0.1,0-0.1,0-0.2,0.1c0,0,0,0,0,0c0,0-0.1,0.1-0.1,0.1c0,0,0,0,0,0c0,0-0.1,0.1-0.1,0.1l0,0c0,0,0,0,0,0c0,0.1,0,0.1,0,0.2
	c0,0,0,0.1,0,0.1v22.3c0,0.4,0.3,0.7,0.7,0.7h32.8c0.4,0,0.7-0.3,0.7-0.7L-174.4,268.6C-174.4,268.6-174.4,268.6-174.4,268.6z
	 M-206.1,269.3h29.2l-14.6,13.3L-206.1,269.3z M-207.2,290.2v-20l15.2,13.9c0.3,0.2,0.7,0.2,0.9,0l15.2-13.9v20H-207.2z
	 M-208.4,268.6L-208.4,268.6L-208.4,268.6L-208.4,268.6z"/>
<g>
	<path class="st0" d="M-178.1,369.7C-178.1,369.7-178.1,369.7-178.1,369.7l-0.1-0.9c-0.1-0.4-0.1-0.8-0.2-1.1
		c-0.1-0.7-0.4-1.4-0.7-2.2c-0.3-0.7-0.6-1.4-1-1.9c0,0,0-0.1,0-0.1c-0.3-0.5-0.6-0.9-1-1.4c-0.4-0.4-0.8-0.8-1.2-1.2l-0.2-0.2
		c-0.5-0.5-1-0.9-1.8-1.4c-0.8-0.5-1.5-0.8-2.1-1.1l-0.1-0.1c-0.5-0.2-1-0.3-1.5-0.5c-0.4-0.1-0.9-0.2-1.3-0.3l-0.2,0
		c-0.2,0-0.4-0.1-0.6-0.1l-0.1,0c-0.1,0-0.2,0-0.3,0h-2.1c0,0-0.1,0-0.1,0l-0.1,0c-0.1,0-0.2,0-0.3,0.1l-0.5,0.1
		c-0.5,0.1-0.9,0.1-1.3,0.3c-0.6,0.2-1.2,0.3-1.7,0.6c-0.6,0.3-1.2,0.6-1.8,0.9c-0.5,0.3-1,0.7-1.5,1.1c-0.4,0.4-0.9,0.8-1.2,1.2
		l-0.2,0.2c-0.6,0.6-1,1.2-1.3,1.7c-0.6,0.9-1,1.6-1.2,2.4c0,0.1-0.1,0.2-0.1,0.3c-0.1,0.2-0.2,0.5-0.3,0.8
		c-0.2,0.7-0.3,1.2-0.4,1.8c-0.1,0.4-0.1,0.8-0.1,1.2l0,0.2c0,0.3,0,0.7,0,1c0,0.5,0.1,0.9,0.1,1.4c0.1,0.7,0.2,1.3,0.4,1.8
		c0.2,0.9,0.6,1.9,1.1,2.8c0.2,0.4,0.4,0.8,0.7,1.2l0.8,1.5c0.1,0.2,0.2,0.4,0.3,0.6c0.1,0.2,0.3,0.5,0.4,0.7l1.1,1.8
		c0.1,0.2,0.2,0.3,0.3,0.5l6.1,10.5c0.1,0.2,0.2,0.3,0.3,0.5c0.4,0.7,1,1,1.8,1c0,0,0.1,0,0.1,0c0.8,0,1.5-0.4,2-1.2
		c0.2-0.3,0.4-0.7,0.6-1l3.1-5.4c0.3-0.6,0.6-1.1,1-1.7c0.2-0.3,0.3-0.6,0.5-0.9l2.5-4.5c0.1-0.2,0.3-0.5,0.4-0.7l0.7-1.2
		c0.3-0.4,0.5-0.9,0.8-1.4c0.2-0.4,0.5-0.9,0.7-1.3c0.4-0.8,0.7-1.7,0.8-2.5c0.1-0.3,0.1-0.6,0.2-0.9l0.1-0.5c0-0.1,0-0.3,0.1-0.4
		l0-0.2c0,0,0-0.1,0-0.1L-178.1,369.7C-178.1,369.8-178.1,369.8-178.1,369.7z M-178.4,369.7L-178.4,369.7L-178.4,369.7L-178.4,369.7
		z M-192.1,393.5c-0.1-0.1-0.2-0.3-0.2-0.4l-6.4-11.2c-0.1-0.2-0.3-0.5-0.4-0.7l-0.4-0.8c-0.2-0.3-0.4-0.7-0.6-1
		c-0.2-0.3-0.3-0.5-0.5-0.8l-0.7-1.2c-0.2-0.4-0.4-0.7-0.6-1.1c-0.5-0.8-0.8-1.7-1-2.5c-0.1-0.5-0.2-1-0.3-1.6
		c-0.1-0.4-0.1-0.9-0.1-1.3c0-0.3,0-0.5,0-0.9l0-0.3c0-0.4,0-0.7,0.1-1c0.1-0.5,0.2-1,0.4-1.6c0.1-0.2,0.1-0.4,0.2-0.6
		c0-0.1,0.1-0.2,0.1-0.3c0.2-0.7,0.6-1.3,1.1-2.1c0.3-0.4,0.7-1,1.1-1.4l0.2-0.2c0.4-0.4,0.7-0.7,1.1-1c0.4-0.3,0.8-0.6,1.3-0.9
		c0.5-0.3,1.1-0.6,1.7-0.8c0.4-0.2,0.9-0.4,1.5-0.5c0.4-0.1,0.8-0.2,1.2-0.2l0.5-0.1c0.1,0,0.2,0,0.3,0l0.1,0h1.9c0,0,0.1,0,0.1,0
		l0.4,0c0.1,0,0.3,0,0.4,0.1l0.2,0c0.4,0.1,0.8,0.1,1.1,0.2c0.5,0.1,1,0.3,1.4,0.5l0.1,0c0.6,0.2,1.1,0.5,1.8,0.9
		c0.7,0.4,1.1,0.8,1.5,1.2l0.2,0.2c0.4,0.4,0.8,0.8,1.1,1.2c0.3,0.4,0.6,0.8,0.9,1.2l0.2-0.1l0,0l-0.1,0.2c0.3,0.5,0.6,1,0.9,1.7
		c0.3,0.6,0.5,1.3,0.6,1.9c0.1,0.3,0.1,0.7,0.2,1l0.1,0.5l0,1.9l-0.1,0.9c0,0.3-0.1,0.6-0.2,0.9c-0.1,0.7-0.4,1.5-0.7,2.2
		c-0.2,0.4-0.4,0.9-0.6,1.2c-0.3,0.5-0.5,1-0.8,1.5c-0.2,0.3-0.3,0.6-0.5,0.9c-0.2,0.3-0.3,0.6-0.5,0.9l-0.6,1
		c-0.1,0.2-0.3,0.5-0.4,0.7c-0.2,0.4-0.4,0.7-0.6,1.1l-1.5,2.6c-0.4,0.8-0.9,1.5-1.3,2.3l-0.4,0.7c-0.1,0.3-0.3,0.5-0.4,0.8l-1,1.7
		c-0.2,0.4-0.4,0.8-0.7,1.1c-0.1,0.2-0.2,0.4-0.3,0.5c-0.2,0.3-0.4,0.7-0.6,1c-0.2,0.4-0.4,0.4-0.7,0.5
		C-191.8,393.9-191.9,393.8-192.1,393.5z M-191.5,395.1L-191.5,395.1L-191.5,395.1L-191.5,395.1z"/>
	<path class="st0" d="M-185.1,372.1c0.1-1.8-0.5-3.3-1.6-4.6c-1.2-1.3-2.7-2-4.4-2.1c-1.8-0.1-3.5,0.6-4.7,1.8
		c-1.1,1.1-1.8,2.6-1.9,4.1c-0.1,1.9,0.5,3.5,1.7,4.9c1.2,1.3,2.8,2,4.7,2C-188.1,378.1-185.3,375.4-185.1,372.1z M-186.6,372
		c-0.1,2.5-2.3,4.6-4.9,4.6c-1.4,0-2.6-0.5-3.5-1.5c-1-1-1.4-2.3-1.3-3.8c0.2-2.8,2.7-4.5,4.9-4.5c0.1,0,0.1,0,0.2,0
		c1.3,0.1,2.5,0.6,3.4,1.6C-187,369.5-186.6,370.6-186.6,372z"/>
</g>
<path class="st0" d="M88.9,64.8L88.9,64.8c0,0-0.8-0.1-2.2-0.3c0.1-1.2,0.1-2.2,0.2-2.9c0-0.6,0-1.5,0.1-2.6
	c0.1-3.3,0.2-8.4,0.3-11.1c0.2-2.9-0.6-5.7-1-7.4c-0.1-0.4-0.2-0.7-0.2-0.9c-0.2-0.8-0.5-1.5-0.8-2c-0.2-0.4-0.4-0.8-0.4-1
	c0-0.4-0.5-1.4-1.1-2.7c-0.3-0.6-0.5-1.1-0.6-1.3c-0.1-0.4-0.6-1.2-0.9-1.8L82,30.6c-1.2-3.3-2.6-5.7-4-7c-0.3-0.3-0.5-0.5-0.8-0.8
	c-4.1-3.8-8.7-8.1-15.8-10.3c-3.9-1.2-10.7-1.9-17-1.6c-4.3,0.2-11.8,0.9-13.7,4.1c-1.6,2.6-2.7,4.1-2.9,4.5
	c-0.8,0.1-6.7,1.3-8.8,5.5c-2.4,4.6-5,11.7-5.2,14.9c-0.1,0.2-0.1,0.5-0.2,0.9c-0.4,1.7-1.1,4.5-1,7.4c0.1,2.7,0.2,7.7,0.3,11.1
	c0,1.1,0,2,0.1,2.6c0,0.7,0.1,1.7,0.2,2.9c-1.2,0.2-1.9,0.3-1.9,0.3c-0.4,0.1-0.7,0.4-0.6,0.8c0,0.2,0.5,3.8,0.5,4.1
	c0.1,0.3,0.3,0.5,0.6,0.6c1.6,0.3,2,2.5,2.6,5.3c0.6,2.8,1.3,6.2,3.4,8.9c2.5,3.2,6.3,4.7,11.7,4.7c12.2,0,14.8-7.3,16.7-12.7
	c1-2.9,1.9-5.3,4-5.3s2.9,2.3,4,5.3c1.9,5.3,4.5,12.7,16.7,12.7c5.4,0,9.2-1.5,11.7-4.7c2.1-2.7,2.8-6.1,3.4-8.9
	c0.6-2.8,1.1-5,2.6-5.3c0.3-0.1,0.6-0.3,0.6-0.6c0.1-0.3,0.5-4,0.5-4.1C89.5,65.2,89.3,64.9,88.9,64.8z M14.2,68.5
	c-1.1,0-2.1-0.6-2.1-1c0-0.4,0.9-1,2.1-1c1.1,0,2.1,0.4,2.1,1C16.3,68.1,15.4,68.5,14.2,68.5z M29.5,86.7c-2.6,0-6-0.3-8.4-2.5
	c-2.6-2.3-3.9-6.3-3.9-12.2c0-2.5,0.8-4,2.5-5c1.8-1,4.7-1.5,9.1-1.5C42.2,65.6,44,68,44,70.3C44,76.4,42.1,86.7,29.5,86.7z
	 M50,65.1c-1.6,0-3.5-0.3-5.9-0.7c-0.6-0.1-1.1-0.2-1.7-0.3c-0.6-1-2.9-2.5-3.7-2.6c-0.3-0.1-0.6-0.2-0.9-0.2
	C37.1,61.1,36.4,61,36,61c-0.6,0-1,0-1.5-0.2c-0.6-0.2-1.5-0.3-2.6-0.2l-0.2,0c-1,0.1-2,0.2-3,0.2c-0.8,0-1.6,0.2-2.4,0.3
	c-0.2,0-0.5,0.1-0.7,0.1c-0.5,0.1-0.8,0.3-1.1,0.4c-0.2,0.1-0.4,0.3-0.7,0.3c-0.3,0.1-0.7,0.1-1,0.2c-0.3,0.1-0.7,0.1-1,0.2
	c-0.5,0.1-0.8,0.6-1,1.1c-2.4,0.2-4.5,0.5-6,0.7c0.2-1,0.3-1.8,0.4-2.4c0.2-1.2,0.2-3,0.2-4.6c0-1.7,0-3.4,0.1-4.5
	c0.3-2,0.9-4,1.3-5.5c0.1-0.3,0.1-0.5,0.2-0.7c0.2-0.8,0.5-2,0.7-3.1c0.2-0.9,0.4-1.8,0.6-2.5c0.4-1.7,2.1-5.1,3.3-6.1
	c0.4-0.3,1.2-1.2,2.2-2.3c2.1-2.3,4.9-5.3,6.5-6.1c2.4-1.1,11.6-1.1,22.1-1.1c6.8,0,12.5,1.4,16.1,2.5c2.8,1.3,4.6,2.6,5.5,3.7
	c2.6,3.4,4.5,8.1,4.5,8.1c0,0.1,0.1,0.1,0.2,0.1c0.1,0,0.2-0.1,0.2-0.2c0,0,0.1-1.1,0.2-2.6c1,1.4,2.2,3.2,2.4,4
	c0.2,0.7,0.4,1.8,0.7,2.9c0.2,1,0.4,2,0.6,2.7c0.1,0.2,0.1,0.4,0.2,0.7c0.4,1.5,1,3.4,1.3,5.4c0.1,1.2,0.1,2.9,0.1,4.5
	c0,1.7,0,3.4,0.2,4.6c0.1,0.6,0.2,1.4,0.4,2.3c-1.4-0.2-3.5-0.4-5.8-0.7c-0.2-0.5-0.5-1-1-1.1c-0.3-0.1-0.7-0.1-1-0.2
	c-0.3-0.1-0.7-0.1-1-0.2c-0.3,0-0.5-0.2-0.7-0.3c-0.3-0.2-0.6-0.3-1.1-0.4c-0.2,0-0.4-0.1-0.7-0.1c-0.7-0.2-1.6-0.3-2.4-0.3
	c-1,0-1.9-0.1-3-0.2l-0.2,0c-1.2-0.1-2,0-2.6,0.2c-0.5,0.1-1,0.2-1.5,0.2c-0.4,0-1,0.2-1.7,0.4c-0.3,0.1-0.6,0.2-0.9,0.2
	c-0.8,0.2-3.1,1.6-3.7,2.7c-0.6,0.1-1.1,0.2-1.6,0.2C53.5,64.8,51.6,65.1,50,65.1z M78.9,84.3c-2.5,2.2-5.8,2.5-8.4,2.5
	C57.9,86.7,56,76.4,56,70.3c0-2.3,1.8-4.7,15.2-4.7c4.4,0,7.3,0.5,9.1,1.5c1.8,1,2.5,2.6,2.5,5C82.8,78,81.5,82,78.9,84.3z
	 M85.8,68.5c-1.1,0-2.1-0.6-2.1-1c0-0.4,0.9-1,2.1-1c1.1,0,2.1,0.4,2.1,1C87.8,68.1,86.9,68.5,85.8,68.5z"/>
<text transform="matrix(1 0 0 1 -268.1396 73.2256)" class="st1" style="font-family:'Montserrat-Bold'; font-size:31.1735px;">Eric Silva</text>
<text transform="matrix(1 0 0 1 -265.3325 217.8428)"><tspan x="0" y="0" class="st1" style="font-family:'Montserrat-Regular'; font-size:22.424px;">508.431.3920</tspan><tspan x="-92.5" y="103.5" class="st1" style="font-family:'Montserrat-Regular'; font-size:22.424px;">ecthedesignguy@gmail.com</tspan><tspan x="-85.7" y="207" class="st1" style="font-family:'Montserrat-Regular'; font-size:22.424px;">Boston, MA / Providence, RI</tspan></text>
</svg>
