<svg xmlns="http://www.w3.org/2000/svg" viewBox="0 0 75 51.7"><title>Asset 1</title><g id="Layer_2" data-name="Layer 2"><g id="Layer_1-2" data-name="Layer 1"><path d="M75,1.4h0a.37.37,0,0,0-.1-.3V1h0c0-.1-.1-.2-.1-.3L74.7.6,74.4.3h0c-.1-.1-.2-.1-.4-.2s-.3-.1-.4-.1H1C.9,0,.8.1.7.2H.6L.4.4.3.5C.2.6.2.7.1.8h0V.9c0,.1-.1.2-.1.3v49a1.54,1.54,0,0,0,1.5,1.5h72A1.54,1.54,0,0,0,75,50.2V1.4ZM5.4,3.1H69.6L37.5,32.3ZM3,48.9V5L36.5,35.5a1.52,1.52,0,0,0,2,0L72,5V48.9ZM.5,1.5Z" style="fill:#010101"/></g></g></svg>