<svg xmlns="http://www.w3.org/2000/svg" viewBox="0 0 59 83.5"><title>Asset 1</title><g id="Layer_2" data-name="Layer 2"><g id="Layer_1-2" data-name="Layer 1"><path d="M58.9,27.3h0l-.3-2a21.66,21.66,0,0,0-.4-2.5,23.18,23.18,0,0,0-1.5-4.7,27.32,27.32,0,0,0-2.2-4.2l-.1-.1a33,33,0,0,0-2.2-3,33.15,33.15,0,0,0-2.6-2.7l-.5-.5a28,28,0,0,0-3.9-3,22.76,22.76,0,0,0-4.6-2.4l-.3-.1A30.05,30.05,0,0,0,37.1,1c-1-.3-2-.4-2.8-.6L33.9.3C33.5.2,33,.2,32.5.1h-.2a1.27,1.27,0,0,0-.6-.1H26.6c-.3,0-.5.1-.8.1l-1,.2c-1,.2-1.9.3-2.9.6a32.16,32.16,0,0,0-3.7,1.2c-1.4.6-2.7,1.3-4,2a27.49,27.49,0,0,0-3.3,2.3A22.26,22.26,0,0,0,8.2,9l-.4.4a22.18,22.18,0,0,0-2.9,3.7,22.14,22.14,0,0,0-2.7,5.3,4.88,4.88,0,0,0-.3.7c-.2.5-.4,1.1-.6,1.7a35.58,35.58,0,0,0-.9,3.9,26,26,0,0,0-.3,2.6v.5A17,17,0,0,0,0,30.1a18.16,18.16,0,0,0,.3,3.2,29.51,29.51,0,0,0,.8,3.9,24.42,24.42,0,0,0,2.5,6.2c.5.9.9,1.7,1.4,2.5l1.8,3.2c.2.4.5.9.7,1.3s.6,1.1.9,1.6l2.3,4a10.91,10.91,0,0,0,.6,1.1L24.6,80.2c.2.3.4.7.6,1a4.76,4.76,0,0,0,3.9,2.3h.2a4.77,4.77,0,0,0,4.3-2.7c.4-.7.8-1.4,1.2-2.2L42,66.9c.7-1.2,1.4-2.4,2.1-3.7a19.83,19.83,0,0,0,1.1-2l5.6-9.8c.3-.5.6-1.1.9-1.6l1.5-2.5c.6-1,1.1-2,1.7-3s1-1.9,1.5-2.9a24.7,24.7,0,0,0,1.9-5.6c.1-.6.2-1.3.3-1.9l.2-1a3.4,3.4,0,0,0,.1-1l.1-.4v-4A.31.31,0,0,0,58.9,27.3Zm-.5.1Zm-30,52.2c-.2-.3-.3-.6-.5-.9L13.7,54.1a10.93,10.93,0,0,1-.8-1.5l-1-1.7a25.29,25.29,0,0,0-1.3-2.2c-.3-.6-.7-1.2-1-1.8L8.1,44.2c-.5-.8-.9-1.6-1.4-2.5a26.69,26.69,0,0,1-2.2-5.4,25.57,25.57,0,0,1-.7-3.6A21.3,21.3,0,0,1,3.6,30a12.75,12.75,0,0,1,.1-1.9v-.6c.1-.8.1-1.5.2-2.2a34.69,34.69,0,0,1,.8-3.6,12.13,12.13,0,0,1,.5-1.4c.1-.2.2-.5.3-.7A20.41,20.41,0,0,1,7.9,15a28.49,28.49,0,0,1,2.5-3.2l.5-.5c.8-.8,1.6-1.6,2.4-2.3a21.15,21.15,0,0,1,2.9-2,24.19,24.19,0,0,1,3.6-1.8A30.05,30.05,0,0,1,23,4.1c.8-.2,1.6-.3,2.6-.5l1.1-.2c.2,0,.4-.1.6-.1h4.5l.8.1c.3,0,.6.1,1,.1l.4.1c.9.2,1.7.3,2.4.5,1,.3,2.1.7,3.1,1.1h.1a22.34,22.34,0,0,1,4,2.1A16.71,16.71,0,0,1,47,9.9l.4.3c.8.8,1.7,1.7,2.5,2.6a24.76,24.76,0,0,1,1.9,2.6l.5-.3h0l-.3.5a25.52,25.52,0,0,1,1.9,3.7,22.53,22.53,0,0,1,1.3,4.2,15.72,15.72,0,0,1,.4,2.3l.2,1.1.1,4.2-.3,2.1c-.1.7-.2,1.3-.3,2a25.4,25.4,0,0,1-1.6,4.9,22.89,22.89,0,0,1-1.4,2.7c-.6,1-1.2,2.1-1.8,3.2-.4.6-.7,1.3-1.1,1.9a18.57,18.57,0,0,0-1.1,1.9L47.1,52a10.93,10.93,0,0,0-.8,1.5,17.61,17.61,0,0,1-1.4,2.3l-3.3,5.8c-1,1.7-1.9,3.4-2.9,5.1l-.8,1.4a8.64,8.64,0,0,1-1,1.6l-2.1,3.7c-.5.8-1,1.7-1.4,2.5a7.46,7.46,0,0,1-.7,1.2,25.29,25.29,0,0,1-1.3,2.2c-.5.9-.9,1-1.5,1C29,80.3,28.7,80.1,28.4,79.6Zm1.2,3.5Z" style="fill:#010101"/><path d="M43.6,32.5A13.45,13.45,0,0,0,40,22.4a13.23,13.23,0,0,0-9.8-4.6,13.84,13.84,0,0,0-10.4,3.9,14.42,14.42,0,0,0-4.3,9,13.77,13.77,0,0,0,3.8,10.8,13.39,13.39,0,0,0,10.2,4.4C37,45.7,43.3,39.8,43.6,32.5Zm-3.3-.2a10.72,10.72,0,1,1-21.4-1.4c.4-6.1,5.8-9.8,10.8-9.8h.4a10.21,10.21,0,0,1,7.4,3.5A10.53,10.53,0,0,1,40.3,32.3Z" style="fill:#010101"/></g></g></svg>