<svg xmlns="http://www.w3.org/2000/svg" viewBox="0 0 49.8 87.8"><title>Asset 1</title><g id="Layer_2" data-name="Layer 2"><g id="Layer_1-2" data-name="Layer 1"><path d="M41,0H8.8A8.81,8.81,0,0,0,0,8.8V79a8.81,8.81,0,0,0,8.8,8.8H41A8.81,8.81,0,0,0,49.8,79V8.8A8.81,8.81,0,0,0,41,0ZM8.8,2.9H41a5.91,5.91,0,0,1,5.9,5.9v8.8H3V8.8A5.89,5.89,0,0,1,8.8,2.9Zm38,17.6V73.2H3V20.5ZM41,84.9H8.8A5.91,5.91,0,0,1,2.9,79V76.1H46.8V79A5.89,5.89,0,0,1,41,84.9Z" style="fill:#010101"/><rect x="22" y="79" width="5.9" height="2.9" style="fill:#010101"/><rect x="14.7" y="8.8" width="2.9" height="2.9" style="fill:#010101"/><rect x="20.5" y="8.8" width="14.6" height="2.9" style="fill:#010101"/></g></g></svg>