<?xml version="1.0" encoding="utf-8"?>
<!-- Generator: Adobe Illustrator 22.0.1, SVG Export Plug-In . SVG Version: 6.00 Build 0)  -->
<svg version="1.1" id="Layer_1" xmlns="http://www.w3.org/2000/svg" xmlns:xlink="http://www.w3.org/1999/xlink" x="0px" y="0px"
	 viewBox="0 0 355.4 199.3" style="enable-background:new 0 0 355.4 199.3;" xml:space="preserve">
<style type="text/css">
	.st0{fill:#231F20;}
</style>
<g>
	<g>
		<path class="st0" d="M12.2,146.5H45v9.6H23.4v6.2H43v8.9H23.4v6.5h21.9v9.6H12.2V146.5z"/>
		<path class="st0" d="M51.7,146.5H71c6.2,0,10.6,1.6,13.3,4.4c2.4,2.4,3.6,5.5,3.6,9.5v0.1c0,6.3-3.3,10.4-8.4,12.6l9.7,14.2h-13
			L68,175h-5v12.4H51.7V146.5z M70.5,166.1c3.8,0,6.1-1.9,6.1-4.8v-0.1c0-3.3-2.4-4.9-6.1-4.9H63v9.9H70.5z"/>
		<path class="st0" d="M94.5,146.5h11.3v40.8H94.5V146.5z"/>
		<path class="st0" d="M112.5,167v-0.1c0-11.9,9.1-21.2,21.5-21.2c8.3,0,13.7,3.5,17.3,8.5l-8.5,6.6c-2.3-2.9-5-4.8-8.9-4.8
			c-5.7,0-9.7,4.9-9.7,10.8v0.1c0,6.1,4,10.9,9.7,10.9c4.3,0,6.8-2,9.2-5l8.5,6.1c-3.8,5.3-9,9.2-18,9.2
			C121.9,188.1,112.5,179.2,112.5,167z"/>
		<path class="st0" d="M170.7,181.3l6.3-7.5c4.1,3.2,8.5,4.9,13.2,4.9c3.1,0,4.7-1,4.7-2.8v-0.1c0-1.7-1.3-2.6-6.9-4
			c-8.7-2-15.4-4.4-15.4-12.8v-0.1c0-7.6,6-13.1,15.8-13.1c6.9,0,12.4,1.9,16.8,5.4l-5.7,8c-3.7-2.7-7.8-4-11.4-4
			c-2.7,0-4.1,1.1-4.1,2.6v0.1c0,1.9,1.4,2.7,7.1,4c9.3,2,15.2,5.1,15.2,12.7v0.1c0,8.3-6.6,13.3-16.5,13.3
			C182.6,188,175.7,185.7,170.7,181.3z"/>
		<path class="st0" d="M212.6,146.5h11.3v40.8h-11.3V146.5z"/>
		<path class="st0" d="M232,146.5h11.3v30.9h19.8v9.9H232V146.5z"/>
		<path class="st0" d="M258.6,146.5h12.6l9.3,25.8l9.3-25.8h12.4l-16.6,41.1h-10.5L258.6,146.5z"/>
		<path class="st0" d="M315,146.2h10.9l17.4,41.1h-12.1l-2.9-7.3h-15.8l-2.9,7.3h-11.8L315,146.2z M324.9,171.2l-4.5-11.5l-4.6,11.5
			H324.9z"/>
	</g>
	<path d="M233.9,90.4L233.9,90.4c0,0-1.2-0.2-3.1-0.5c0.1-1.8,0.2-3.2,0.2-4.2c0-0.8,0-2.1,0.1-3.7c0.1-4.8,0.2-12.1,0.4-16
		c0.2-4.2-0.8-8.3-1.4-10.7c-0.1-0.5-0.2-1-0.3-1.3c-0.2-1.1-0.8-2.1-1.2-3c-0.3-0.6-0.6-1.2-0.6-1.5c0-0.6-0.7-2-1.6-4
		c-0.4-0.8-0.8-1.6-0.9-1.9c-0.2-0.6-0.8-1.7-1.3-2.5L224,41c-1.7-4.8-3.7-8.2-5.8-10.2c-0.4-0.4-0.8-0.7-1.2-1.1
		c-5.9-5.5-12.5-11.7-22.8-14.9c-5.6-1.8-15.5-2.7-24.5-2.4c-6.2,0.2-17.1,1.3-19.8,5.9c-2.3,3.8-3.9,6-4.2,6.4
		c-1.2,0.2-9.7,1.8-12.8,7.9c-3.4,6.7-7.2,16.9-7.5,21.5c-0.1,0.3-0.2,0.8-0.3,1.3c-0.6,2.4-1.6,6.5-1.4,10.7
		c0.2,3.9,0.3,11.2,0.4,16c0,1.5,0.1,2.8,0.1,3.7c0,1,0.1,2.4,0.2,4.2c-1.7,0.2-2.7,0.4-2.7,0.4c-0.6,0.1-1,0.6-0.9,1.2
		c0,0.2,0.7,5.5,0.7,6c0.1,0.4,0.4,0.7,0.9,0.8c2.3,0.4,3,3.6,3.8,7.7c0.8,4,1.9,9,4.9,12.9c3.6,4.6,9.1,6.8,16.9,6.8
		c17.6,0,21.3-10.6,24.1-18.3c1.5-4.3,2.7-7.6,5.8-7.6s4.3,3.4,5.8,7.6c2.7,7.7,6.4,18.3,24.1,18.3c7.8,0,13.3-2.2,16.9-6.8
		c3-3.9,4.1-8.9,4.9-12.9c0.9-4.1,1.5-7.3,3.8-7.7c0.5-0.1,0.8-0.4,0.9-0.8c0.1-0.4,0.7-5.7,0.7-6C234.8,91,234.4,90.5,233.9,90.4z
		 M126.1,95.8c-1.6,0-3-0.8-3-1.4c0-0.6,1.3-1.4,3-1.4c1.6,0,3,0.6,3,1.4C129.1,95.2,127.7,95.8,126.1,95.8z M148.1,122.1
		c-3.8,0-8.6-0.4-12.2-3.6c-3.8-3.3-5.6-9.1-5.6-17.6c0-3.6,1.1-5.8,3.7-7.3c2.6-1.5,6.7-2.1,13.2-2.1c19.3,0,21.9,3.4,21.9,6.8
		C169.1,107.2,166.4,122.1,148.1,122.1z M177.7,90.9c-2.4,0-5.1-0.4-8.6-1c-0.8-0.1-1.6-0.3-2.5-0.4c-0.9-1.5-4.2-3.5-5.3-3.8
		c-0.4-0.1-0.9-0.2-1.3-0.4c-1-0.3-1.9-0.5-2.4-0.5c-0.8,0-1.5,0-2.2-0.2c-0.9-0.2-2.2-0.5-3.8-0.3l-0.4,0c-1.5,0.2-2.9,0.4-4.3,0.3
		c-1.2,0-2.4,0.2-3.4,0.4c-0.3,0.1-0.7,0.1-1,0.2c-0.7,0.1-1.2,0.4-1.6,0.6c-0.3,0.2-0.6,0.4-1.1,0.4c-0.5,0.1-1,0.2-1.5,0.3
		c-0.5,0.1-1,0.2-1.4,0.3c-0.7,0.1-1.2,0.9-1.5,1.6c-3.4,0.3-6.5,0.7-8.6,1c0.2-1.4,0.4-2.6,0.5-3.4c0.2-1.8,0.2-4.3,0.2-6.7
		c0-2.4,0-4.9,0.2-6.6c0.4-2.9,1.2-5.8,1.9-7.9c0.1-0.4,0.2-0.7,0.3-1c0.3-1.2,0.7-2.9,1-4.5c0.3-1.3,0.5-2.5,0.8-3.6
		c0.6-2.4,3-7.4,4.8-8.9c0.6-0.5,1.8-1.7,3.2-3.3c3-3.3,7.1-7.7,9.4-8.8c3.5-1.6,16.7-1.6,32-1.6c9.8,0,18.1,2,23.3,3.6
		c4,1.9,6.7,3.7,8,5.4c3.8,4.9,6.4,11.7,6.5,11.8c0,0.1,0.2,0.2,0.3,0.2c0.1,0,0.2-0.1,0.3-0.3c0,0,0.2-1.6,0.3-3.8
		c1.5,2,3.1,4.6,3.5,5.7c0.3,1.1,0.6,2.6,1,4.2c0.3,1.4,0.6,2.9,0.9,3.9c0.1,0.3,0.2,0.6,0.3,1c0.6,2.1,1.5,5,1.9,7.9
		c0.2,1.7,0.2,4.2,0.2,6.6c0,2.4,0,4.9,0.2,6.7c0.1,0.8,0.3,2,0.5,3.4c-2.1-0.3-5.1-0.6-8.3-1c-0.3-0.7-0.8-1.5-1.5-1.6
		c-0.5-0.1-1-0.2-1.4-0.3c-0.5-0.1-1-0.2-1.5-0.3c-0.4-0.1-0.7-0.2-1.1-0.4c-0.4-0.2-0.9-0.5-1.6-0.6c-0.3-0.1-0.6-0.1-1-0.2
		c-1.1-0.2-2.2-0.5-3.4-0.4c-1.4,0-2.8-0.1-4.3-0.3l-0.4,0c-1.7-0.2-2.9,0-3.8,0.3c-0.7,0.2-1.4,0.2-2.2,0.2c-0.6,0-1.5,0.2-2.4,0.5
		c-0.4,0.1-0.9,0.3-1.3,0.4c-1.1,0.3-4.4,2.3-5.3,3.8c-0.8,0.1-1.6,0.2-2.3,0.4C182.8,90.5,180.1,90.9,177.7,90.9z M219.5,118.6
		c-3.6,3.2-8.4,3.6-12.2,3.6c-18.2,0-21-14.9-21-23.7c0-3.4,2.6-6.8,21.9-6.8c6.4,0,10.6,0.7,13.2,2.1c2.5,1.4,3.7,3.7,3.7,7.3
		C225.1,109.5,223.2,115.2,219.5,118.6z M229.4,95.8c-1.6,0-3-0.8-3-1.4c0-0.6,1.3-1.4,3-1.4c1.6,0,3,0.6,3,1.4
		C232.3,95.2,231,95.8,229.4,95.8z"/>
</g>
</svg>
