<?xml version="1.0" encoding="utf-8"?>
<!-- Generator: Adobe Illustrator 21.0.0, SVG Export Plug-In . SVG Version: 6.00 Build 0)  -->
<svg version="1.1" id="Layer_1" xmlns="http://www.w3.org/2000/svg" xmlns:xlink="http://www.w3.org/1999/xlink" x="0px" y="0px"
	 viewBox="0 0 164.7 105.2" style="enable-background:new 0 0 164.7 105.2;" xml:space="preserve">
<style type="text/css">
	.st0{fill:#010101;}
</style>
<g>
	<path class="st0" d="M109.5,39.4L109.5,39.4c0,0-0.6-0.1-1.5-0.2c0.1-0.9,0.1-1.5,0.1-2c0-0.4,0-1,0-1.8c0-2.3,0.1-5.9,0.2-7.7
		c0.1-2-0.4-4-0.7-5.2c-0.1-0.3-0.1-0.5-0.2-0.6c-0.1-0.5-0.4-1-0.6-1.4c-0.2-0.3-0.3-0.6-0.3-0.7c0-0.3-0.3-1-0.8-1.9
		c-0.2-0.4-0.4-0.8-0.4-0.9c-0.1-0.3-0.4-0.8-0.6-1.2l-0.1-0.1c-0.8-2.3-1.8-4-2.8-4.9c-0.2-0.2-0.4-0.4-0.6-0.5
		c-2.8-2.6-6-5.6-11-7.2c-2.7-0.9-7.5-1.3-11.8-1.1c-3,0.1-8.2,0.6-9.6,2.8c-1.1,1.8-1.9,2.9-2,3.1c-0.6,0.1-4.7,0.9-6.2,3.8
		c-1.7,3.2-3.5,8.1-3.6,10.4c0,0.2-0.1,0.4-0.2,0.6c-0.3,1.2-0.8,3.1-0.7,5.2c0.1,1.9,0.2,5.4,0.2,7.7c0,0.7,0,1.4,0,1.8
		c0,0.5,0,1.2,0.1,2c-0.8,0.1-1.3,0.2-1.3,0.2c-0.3,0-0.5,0.3-0.4,0.6c0,0.1,0.3,2.7,0.4,2.9c0,0.2,0.2,0.4,0.4,0.4
		c1.1,0.2,1.4,1.7,1.8,3.7c0.4,1.9,0.9,4.3,2.4,6.2c1.7,2.2,4.4,3.3,8.1,3.3c8.5,0,10.3-5.1,11.6-8.8c0.7-2.1,1.3-3.7,2.8-3.7
		c1.5,0,2.1,1.6,2.8,3.7c1.3,3.7,3.1,8.8,11.6,8.8c3.8,0,6.4-1.1,8.1-3.3c1.5-1.9,2-4.3,2.4-6.2c0.4-2,0.7-3.5,1.8-3.7
		c0.2,0,0.4-0.2,0.4-0.4c0-0.2,0.3-2.8,0.4-2.9C109.9,39.7,109.7,39.5,109.5,39.4z M57.4,42c-0.8,0-1.4-0.4-1.4-0.7
		c0-0.3,0.6-0.7,1.4-0.7c0.8,0,1.4,0.3,1.4,0.7C58.9,41.7,58.2,42,57.4,42z M68.1,54.7c-1.8,0-4.2-0.2-5.9-1.7
		c-1.8-1.6-2.7-4.4-2.7-8.5c0-1.7,0.5-2.8,1.8-3.5c1.2-0.7,3.3-1,6.4-1c9.3,0,10.6,1.7,10.6,3.3C78.2,47.5,76.9,54.7,68.1,54.7z
		 M82.4,39.7c-1.1,0-2.5-0.2-4.1-0.5c-0.4-0.1-0.8-0.1-1.2-0.2c-0.5-0.7-2-1.7-2.6-1.8c-0.2,0-0.4-0.1-0.6-0.2
		c-0.5-0.1-0.9-0.3-1.2-0.2c-0.4,0-0.7,0-1.1-0.1c-0.4-0.1-1-0.2-1.8-0.1l-0.2,0c-0.7,0.1-1.4,0.2-2.1,0.2c-0.6,0-1.1,0.1-1.7,0.2
		c-0.2,0-0.3,0.1-0.5,0.1c-0.3,0.1-0.6,0.2-0.8,0.3c-0.2,0.1-0.3,0.2-0.5,0.2c-0.2,0-0.5,0.1-0.7,0.1c-0.2,0-0.5,0.1-0.7,0.1
		c-0.4,0.1-0.6,0.4-0.7,0.8c-1.6,0.2-3.1,0.3-4.2,0.5c0.1-0.7,0.2-1.2,0.3-1.7c0.1-0.9,0.1-2.1,0.1-3.2c0-1.2,0-2.4,0.1-3.2
		c0.2-1.4,0.6-2.8,0.9-3.8c0.1-0.2,0.1-0.3,0.1-0.5c0.2-0.6,0.3-1.4,0.5-2.2c0.1-0.6,0.3-1.2,0.4-1.7c0.3-1.2,1.5-3.6,2.3-4.3
		c0.3-0.2,0.8-0.8,1.5-1.6c1.4-1.6,3.4-3.7,4.6-4.3c1.7-0.8,8.1-0.8,15.4-0.8c4.7,0,8.7,0.9,11.3,1.7c1.9,0.9,3.2,1.8,3.9,2.6
		c1.8,2.4,3.1,5.6,3.1,5.7c0,0.1,0.1,0.1,0.2,0.1c0.1,0,0.1-0.1,0.1-0.1c0,0,0.1-0.8,0.2-1.8c0.7,1,1.5,2.2,1.7,2.8
		c0.2,0.5,0.3,1.3,0.5,2c0.1,0.7,0.3,1.4,0.4,1.9c0,0.1,0.1,0.3,0.1,0.5c0.3,1,0.7,2.4,0.9,3.8c0.1,0.8,0.1,2,0.1,3.2
		c0,1.2,0,2.4,0.1,3.2c0.1,0.4,0.1,1,0.2,1.6c-1-0.1-2.4-0.3-4-0.5c-0.1-0.3-0.4-0.7-0.7-0.8c-0.2,0-0.5-0.1-0.7-0.1
		c-0.2,0-0.5-0.1-0.7-0.1c-0.2,0-0.3-0.1-0.5-0.2c-0.2-0.1-0.4-0.2-0.8-0.3c-0.1,0-0.3-0.1-0.5-0.1c-0.5-0.1-1.1-0.2-1.7-0.2
		c-0.7,0-1.4-0.1-2.1-0.2l-0.2,0c-0.8-0.1-1.4,0-1.8,0.1c-0.4,0.1-0.7,0.1-1.1,0.1c-0.3,0-0.7,0.1-1.2,0.2c-0.2,0.1-0.4,0.1-0.6,0.2
		c-0.5,0.1-2.1,1.1-2.6,1.9c-0.4,0.1-0.8,0.1-1.1,0.2C84.8,39.4,83.5,39.7,82.4,39.7z M102.5,53c-1.7,1.5-4.1,1.7-5.9,1.7
		c-8.8,0-10.1-7.2-10.1-11.5c0-1.6,1.3-3.3,10.6-3.3c3.1,0,5.1,0.3,6.4,1c1.2,0.7,1.8,1.8,1.8,3.5C105.2,48.6,104.3,51.4,102.5,53z
		 M107.3,42c-0.8,0-1.4-0.4-1.4-0.7c0-0.3,0.6-0.7,1.4-0.7c0.8,0,1.4,0.3,1.4,0.7C108.7,41.7,108.1,42,107.3,42z"/>
	<g>
		<g>
			<path class="st0" d="M7,72.4v3.8h9.1V80H7v3.8h10.3v3.8H2.1v-19H17v3.8H7z"/>
			<path class="st0" d="M30.5,82.3h-0.1h-3.7v5.3h-4.8v-19h8.5c2.5,0,4.5,0.6,5.8,1.7c1.4,1.1,2.1,2.8,2.1,4.9
				c0,1.5-0.3,2.7-0.9,3.7c-0.6,1-1.4,1.8-2.6,2.4l4,6.3h-5.5L30.5,82.3z M30.3,78.5c1.1,0,1.9-0.3,2.4-0.8c0.6-0.5,0.9-1.3,0.9-2.3
				c0-1-0.3-1.7-0.9-2.2c-0.6-0.5-1.4-0.8-2.4-0.8h-3.7v6.1H30.3z"/>
			<path class="st0" d="M42.8,87.6v-19h4.8v19H42.8z"/>
			<path class="st0" d="M65.9,69.3c1.4,0.6,2.5,1.4,3.5,2.3L66.6,75c-0.6-0.8-1.4-1.4-2.2-1.8c-0.9-0.4-1.7-0.7-2.6-0.7
				c-1,0-1.9,0.2-2.7,0.7c-0.8,0.5-1.4,1.1-1.9,2C56.8,76,56.5,77,56.5,78c0,1.1,0.2,2,0.7,2.9c0.5,0.8,1.1,1.5,1.9,2
				c0.8,0.5,1.7,0.7,2.7,0.7c0.8,0,1.6-0.2,2.5-0.6s1.6-0.9,2.3-1.6l2.8,3c-1,1.1-2.3,1.9-3.7,2.5c-1.4,0.6-2.8,0.9-4.2,0.9
				c-1.9,0-3.6-0.4-5.1-1.3c-1.5-0.8-2.7-2-3.6-3.5c-0.9-1.5-1.3-3.2-1.3-5c0-1.8,0.4-3.4,1.3-4.9c0.9-1.5,2.1-2.6,3.7-3.5
				c1.5-0.8,3.3-1.3,5.2-1.3C63.2,68.5,64.5,68.7,65.9,69.3z"/>
			<path class="st0" d="M92,69c1.3,0.4,2.5,0.9,3.5,1.6l-1.8,3.8c-1-0.6-2.1-1.1-3.2-1.4c-1.1-0.4-2.1-0.6-2.9-0.6
				c-0.6,0-1.1,0.1-1.5,0.4c-0.4,0.2-0.6,0.6-0.6,1c0,0.6,0.3,1.1,0.9,1.4c0.6,0.3,1.5,0.7,2.8,1c1.3,0.4,2.4,0.8,3.3,1.1
				c0.8,0.4,1.6,1,2.2,1.7c0.6,0.8,0.9,1.8,0.9,3c0,1.2-0.3,2.3-1,3.2c-0.7,0.9-1.6,1.5-2.7,2c-1.2,0.4-2.4,0.7-3.9,0.7
				c-1.6,0-3.1-0.3-4.7-0.8s-2.9-1.3-4-2.2l1.9-3.7c1,0.8,2.1,1.5,3.4,2.1c1.3,0.5,2.5,0.8,3.5,0.8c0.8,0,1.4-0.1,1.8-0.4
				c0.4-0.3,0.7-0.7,0.7-1.2c0-0.6-0.3-1.1-0.9-1.4c-0.6-0.3-1.6-0.7-2.8-1c-1.3-0.4-2.4-0.7-3.2-1.1c-0.8-0.4-1.6-0.9-2.2-1.7
				c-0.6-0.7-0.9-1.7-0.9-2.9c0-1.2,0.3-2.2,0.9-3c0.6-0.9,1.5-1.5,2.7-2c1.1-0.5,2.5-0.7,4-0.7C89.3,68.4,90.7,68.6,92,69z"/>
			<path class="st0" d="M99.5,87.6v-19h4.8v19H99.5z"/>
			<path class="st0" d="M122.4,83.6v4h-12.9v-19h4.8v15H122.4z"/>
			<path class="st0" d="M129.8,87.6l-7.4-19h5.2l4.9,14l4.9-14h5l-7.5,19H129.8z"/>
			<path class="st0" d="M148.3,84.1l-1.4,3.5h-5l8.2-19h5l8,19H158l-1.4-3.5H148.3z M152.5,73.4l-2.8,7h5.5L152.5,73.4z"/>
		</g>
		<g>
			<path class="st0" d="M9.5,92.8c0.7,0.3,1.3,0.7,1.9,1.2l-0.8,1c-0.4-0.4-0.9-0.8-1.5-1c-0.6-0.2-1.2-0.4-1.8-0.4
				c-0.8,0-1.6,0.2-2.3,0.6c-0.7,0.4-1.2,0.9-1.6,1.6s-0.6,1.4-0.6,2.2c0,0.8,0.2,1.5,0.6,2.2c0.4,0.7,0.9,1.2,1.6,1.6
				c0.7,0.4,1.4,0.6,2.3,0.6c0.6,0,1.2-0.1,1.8-0.3c0.6-0.2,1.1-0.6,1.5-1l0.8,0.9c-0.6,0.5-1.2,0.9-1.9,1.2
				c-0.7,0.3-1.4,0.5-2.2,0.5c-1,0-2-0.2-2.9-0.7c-0.9-0.5-1.6-1.2-2.1-2c-0.5-0.9-0.8-1.8-0.8-2.8c0-1,0.3-1.9,0.8-2.8
				c0.5-0.8,1.2-1.5,2.1-2c0.9-0.5,1.8-0.7,2.9-0.7C8,92.3,8.8,92.5,9.5,92.8z"/>
			<path class="st0" d="M21.7,99.9c-0.3,0-0.6,0-0.7,0H18v3.5h-1.3v-11H21c1.4,0,2.4,0.3,3.2,1c0.8,0.6,1.1,1.6,1.1,2.7
				c0,0.9-0.2,1.7-0.6,2.3c-0.4,0.6-1,1-1.8,1.3l2.6,3.8H24L21.7,99.9z M23.3,98.1c0.5-0.4,0.8-1.1,0.8-1.9c0-0.8-0.3-1.5-0.8-1.9
				c-0.5-0.4-1.3-0.6-2.3-0.6H18v5.1H21C22,98.7,22.7,98.5,23.3,98.1z"/>
			<path class="st0" d="M32.6,93.6v3.6h5.6v1.2h-5.6v3.8H39v1.2h-7.7v-11h7.5v1.2H32.6z"/>
			<path class="st0" d="M45.7,100.6l-1.2,2.8h-1.3l5-11h1.3l4.9,11H53l-1.2-2.8H45.7z M48.7,93.8l-2.5,5.6h5L48.7,93.8z"/>
			<path class="st0" d="M61.6,93.6v9.8h-1.3v-9.8h-3.6v-1.2h8.5v1.2H61.6z"/>
			<path class="st0" d="M70.1,103.4v-11h1.3v11H70.1z"/>
			<path class="st0" d="M80.8,103.4l-4.5-11h1.4l3.8,9.6l3.8-9.6h1.3l-4.5,11H80.8z"/>
			<path class="st0" d="M92.8,93.6v3.6h5.6v1.2h-5.6v3.8h6.4v1.2h-7.7v-11H99v1.2H92.8z"/>
			<path class="st0" d="M121.9,103.4l-3-9.3l-3,9.3h-1.3l-3.7-11h1.4l3,9.6l3-9.6l1.3,0l3,9.6l3-9.6h1.3l-3.7,11H121.9z"/>
			<path class="st0" d="M139.6,103.4v-4.9h-6.7v4.9h-1.3v-11h1.3v5h6.7v-5h1.3v11H139.6z"/>
			<path class="st0" d="M147.3,103.4v-11h1.3v11H147.3z"/>
			<path class="st0" d="M155.7,102.2h7.4l0,1.2h-9v-1l7.3-8.8h-7.1v-1.2h8.8v1L155.7,102.2z"/>
		</g>
	</g>
</g>
</svg>
