<?xml version="1.0" encoding="utf-8"?>
<!-- Generator: Adobe Illustrator 21.0.0, SVG Export Plug-In . SVG Version: 6.00 Build 0)  -->
<svg version="1.1" id="Layer_1" xmlns="http://www.w3.org/2000/svg" xmlns:xlink="http://www.w3.org/1999/xlink" x="0px" y="0px"
	 viewBox="0 0 52.7 52.7" style="enable-background:new 0 0 52.7 52.7;" xml:space="preserve">
<g>
	<path d="M125.2,32.3h-16.4c-2.5,0-4.5,2-4.5,4.5v35.7c0,2.5,2,4.5,4.5,4.5h16.4c2.5,0,4.5-2,4.5-4.5V36.7
		C129.7,34.3,127.7,32.3,125.2,32.3z M108.9,33.7h16.4c1.6,0,3,1.3,3,3v4.5h-22.3v-4.5C105.9,35.1,107.2,33.7,108.9,33.7z
		 M128.2,42.7v26.8h-22.3V42.7H128.2z M125.2,75.4h-16.4c-1.6,0-3-1.3-3-3v-1.5h22.3v1.5C128.2,74,126.8,75.4,125.2,75.4z"/>
	<rect x="115.5" y="72.4" width="3" height="1.5"/>
	<rect x="111.8" y="36.7" width="1.5" height="1.5"/>
	<rect x="114.8" y="36.7" width="7.4" height="1.5"/>
</g>
<path d="M136.1,42.1L136.1,42.1c0,0,0-0.1,0-0.2c0,0,0,0,0,0c0,0,0,0,0,0c0-0.1-0.1-0.1-0.1-0.1c0,0,0-0.1,0-0.1
	c0,0-0.1-0.1-0.1-0.1c0,0,0,0,0,0c-0.1,0-0.1-0.1-0.2-0.1c-0.1,0-0.1,0-0.2,0H98.7c-0.1,0-0.1,0-0.2,0c0,0-0.1,0-0.1,0
	c-0.1,0-0.1,0.1-0.2,0.1c0,0,0,0,0,0c-0.1,0-0.1,0.1-0.1,0.1c0,0,0,0,0,0.1c0,0-0.1,0.1-0.1,0.2l0,0c0,0,0,0,0,0.1
	c0,0.1,0,0.1,0,0.2c0,0,0,0.1,0,0.1V67c0,0.4,0.3,0.8,0.8,0.8h36.6c0.4,0,0.8-0.3,0.8-0.8L136.1,42.1
	C136.1,42.1,136.1,42.1,136.1,42.1z M100.7,42.9h32.6L117,57.8L100.7,42.9z M99.5,66.2V43.9l17,15.5c0.3,0.3,0.8,0.3,1,0l17-15.5
	v22.3H99.5z M98.2,42.1L98.2,42.1L98.2,42.1L98.2,42.1z"/>
<g>
	<path d="M131.9,47.2C131.9,47.2,131.9,47.1,131.9,47.2l-0.2-1c-0.1-0.4-0.1-0.8-0.2-1.3c-0.2-0.8-0.4-1.6-0.8-2.4
		c-0.3-0.8-0.7-1.5-1.1-2.1c0,0,0-0.1,0-0.1c-0.3-0.5-0.7-1-1.1-1.5c-0.4-0.5-0.9-0.9-1.3-1.4l-0.2-0.2c-0.5-0.5-1.1-1-2-1.5
		c-0.9-0.6-1.6-0.9-2.4-1.2l-0.2-0.1c-0.5-0.2-1.1-0.4-1.6-0.5c-0.5-0.1-1-0.2-1.4-0.3l-0.2,0c-0.2,0-0.5-0.1-0.7-0.1l-0.1,0
		c-0.1,0-0.2-0.1-0.3-0.1h-2.3c0,0-0.1,0-0.1,0l-0.2,0c-0.1,0-0.3,0-0.4,0.1l-0.5,0.1c-0.5,0.1-1,0.2-1.4,0.3
		c-0.7,0.2-1.3,0.4-1.9,0.6c-0.7,0.3-1.4,0.6-2,1c-0.6,0.4-1.2,0.7-1.7,1.2c-0.5,0.4-1,0.9-1.4,1.3l-0.2,0.2
		c-0.6,0.6-1.1,1.3-1.5,1.9c-0.6,1-1.1,1.8-1.4,2.7c0,0.1-0.1,0.2-0.1,0.3c-0.1,0.2-0.2,0.6-0.3,0.9c-0.2,0.7-0.3,1.4-0.4,2
		c-0.1,0.5-0.1,0.9-0.1,1.3l0,0.3c0,0.4-0.1,0.7,0,1.1c0,0.5,0.1,1,0.1,1.6c0.1,0.8,0.2,1.4,0.4,2c0.3,1,0.7,2.1,1.3,3.1
		c0.2,0.4,0.5,0.9,0.7,1.3l0.9,1.6c0.1,0.2,0.2,0.4,0.4,0.7c0.2,0.3,0.3,0.5,0.5,0.8l1.2,2.1c0.1,0.2,0.2,0.4,0.3,0.6l6.8,11.8
		c0.1,0.2,0.2,0.3,0.3,0.5c0.5,0.7,1.1,1.1,2,1.2c0,0,0.1,0,0.1,0c0.9,0,1.7-0.5,2.2-1.4c0.2-0.4,0.4-0.7,0.6-1.1l3.5-6
		c0.4-0.6,0.7-1.2,1.1-1.9c0.2-0.3,0.4-0.7,0.6-1l2.8-5c0.2-0.3,0.3-0.5,0.5-0.8l0.7-1.3c0.3-0.5,0.6-1,0.8-1.5
		c0.2-0.5,0.5-1,0.7-1.5c0.4-0.9,0.8-1.9,0.9-2.8c0.1-0.3,0.1-0.7,0.2-1l0.1-0.5c0-0.2,0.1-0.3,0.1-0.5l0-0.2c0,0,0-0.1,0-0.1v-1.9
		C131.9,47.2,131.9,47.2,131.9,47.2z M131.7,47.2L131.7,47.2L131.7,47.2L131.7,47.2z M116.4,73.7c-0.1-0.1-0.2-0.3-0.3-0.4L109,60.8
		c-0.1-0.3-0.3-0.5-0.4-0.8l-0.5-0.8c-0.2-0.4-0.4-0.7-0.6-1.1c-0.2-0.3-0.3-0.6-0.5-0.9l-0.8-1.4c-0.2-0.4-0.5-0.8-0.7-1.3
		c-0.5-0.9-0.9-1.8-1.1-2.7c-0.1-0.5-0.2-1.1-0.4-1.8c-0.1-0.5-0.1-1-0.1-1.4c0-0.3,0-0.6,0-1l0-0.3c0-0.4,0.1-0.8,0.1-1.1
		c0.1-0.6,0.2-1.1,0.4-1.8c0.1-0.2,0.1-0.4,0.2-0.7c0-0.1,0.1-0.3,0.1-0.4c0.3-0.7,0.7-1.5,1.2-2.3c0.3-0.5,0.7-1.1,1.3-1.6l0.2-0.2
		c0.4-0.4,0.8-0.8,1.2-1.2c0.4-0.4,0.9-0.7,1.5-1c0.6-0.3,1.2-0.6,1.9-0.9c0.5-0.2,1-0.4,1.6-0.6c0.4-0.1,0.8-0.2,1.3-0.3l0.5-0.1
		c0.1,0,0.2,0,0.3,0l0.1,0h2.1c0,0,0.1,0,0.1,0l0.4,0c0.2,0,0.3,0,0.5,0.1l0.2,0c0.5,0.1,0.9,0.1,1.2,0.3c0.5,0.2,1.1,0.4,1.6,0.5
		l0.1,0c0.6,0.2,1.3,0.6,2,1.1c0.7,0.5,1.3,0.9,1.7,1.3l0.2,0.2c0.4,0.4,0.9,0.9,1.3,1.3c0.3,0.4,0.7,0.9,1,1.3l0.2-0.2l0,0
		l-0.2,0.3c0.4,0.5,0.7,1.2,1,1.9c0.3,0.7,0.5,1.4,0.7,2.1c0.1,0.4,0.1,0.8,0.2,1.2l0.1,0.6l0.1,2.2l-0.2,1c-0.1,0.3-0.1,0.7-0.2,1
		c-0.2,0.8-0.4,1.6-0.8,2.5c-0.2,0.5-0.5,0.9-0.7,1.4c-0.3,0.5-0.6,1.1-0.9,1.6c-0.2,0.3-0.4,0.6-0.6,1c-0.2,0.3-0.4,0.7-0.6,1
		l-0.6,1.1c-0.1,0.3-0.3,0.5-0.4,0.8c-0.2,0.4-0.5,0.8-0.7,1.2l-1.7,2.9c-0.5,0.9-1,1.7-1.5,2.6l-0.4,0.7c-0.2,0.3-0.3,0.6-0.5,0.8
		l-1.1,1.9c-0.2,0.4-0.5,0.9-0.7,1.3c-0.1,0.2-0.2,0.4-0.3,0.6c-0.2,0.4-0.4,0.7-0.6,1.1c-0.2,0.4-0.5,0.5-0.8,0.5
		C116.7,74.1,116.6,74,116.4,73.7z M117,75.5L117,75.5L117,75.5L117,75.5z"/>
	<path d="M124.2,49.8c0.1-2-0.5-3.7-1.8-5.1c-1.3-1.5-3-2.3-5-2.3c-2-0.1-3.9,0.6-5.3,2c-1.3,1.2-2,2.9-2.2,4.6
		c-0.1,2.1,0.5,4,1.9,5.5c1.4,1.5,3.1,2.2,5.2,2.2C120.8,56.5,124,53.5,124.2,49.8z M122.5,49.7c-0.1,2.8-2.6,5.1-5.4,5.1
		c-1.6,0-2.9-0.6-4-1.7c-1.1-1.2-1.6-2.6-1.5-4.2c0.2-3.1,3-5,5.5-5c0.1,0,0.1,0,0.2,0c1.5,0.1,2.7,0.7,3.8,1.8
		C122.1,46.9,122.5,48.2,122.5,49.7z"/>
</g>
<path d="M49.8,35.3L49.8,35.3c0,0-0.5-0.1-1.3-0.2c0.1-0.7,0.1-1.3,0.1-1.7c0-0.4,0-0.9,0-1.5c0-2,0.1-5.1,0.2-6.7
	c0.1-1.8-0.3-3.4-0.6-4.5c-0.1-0.2-0.1-0.4-0.1-0.6c-0.1-0.5-0.3-0.9-0.5-1.2c-0.1-0.3-0.3-0.5-0.3-0.6c0-0.2-0.3-0.8-0.7-1.6
	c-0.2-0.3-0.3-0.7-0.4-0.8c-0.1-0.2-0.4-0.7-0.6-1.1l-0.1-0.1c-0.7-2-1.5-3.4-2.4-4.2c-0.2-0.2-0.3-0.3-0.5-0.5
	c-2.4-2.3-5.2-4.9-9.5-6.2C30.9,3,26.8,2.6,23,2.8c-2.6,0.1-7.1,0.6-8.3,2.4c-1,1.6-1.6,2.5-1.8,2.7c-0.5,0.1-4,0.8-5.3,3.3
	c-1.4,2.8-3,7-3.1,8.9c0,0.1-0.1,0.3-0.1,0.5c-0.3,1-0.7,2.7-0.6,4.5c0.1,1.6,0.1,4.6,0.2,6.7c0,0.6,0,1.2,0,1.5c0,0.4,0,1,0.1,1.8
	C3.4,35.2,3,35.3,3,35.3c-0.2,0-0.4,0.3-0.4,0.5c0,0.1,0.3,2.3,0.3,2.5c0,0.2,0.2,0.3,0.4,0.3c1,0.2,1.2,1.5,1.6,3.2
	c0.4,1.7,0.8,3.7,2.1,5.4c1.5,1.9,3.8,2.8,7,2.8c7.3,0,8.9-4.4,10-7.6c0.6-1.8,1.1-3.2,2.4-3.2s1.8,1.4,2.4,3.2
	c1.1,3.2,2.7,7.6,10,7.6c3.3,0,5.6-0.9,7-2.8c1.3-1.6,1.7-3.7,2.1-5.4c0.4-1.7,0.6-3,1.6-3.2c0.2,0,0.3-0.2,0.4-0.3
	c0-0.2,0.3-2.4,0.3-2.5C50.2,35.5,50,35.3,49.8,35.3z M4.8,37.5c-0.7,0-1.2-0.3-1.2-0.6c0-0.2,0.6-0.6,1.2-0.6
	c0.7,0,1.2,0.2,1.2,0.6C6.1,37.3,5.5,37.5,4.8,37.5z M14,48.5c-1.6,0-3.6-0.2-5.1-1.5c-1.6-1.4-2.3-3.8-2.3-7.3c0-1.5,0.5-2.4,1.5-3
	c1.1-0.6,2.8-0.9,5.5-0.9c8,0,9.1,1.4,9.1,2.8C22.8,42.3,21.6,48.5,14,48.5z M26.4,35.5c-1,0-2.1-0.2-3.6-0.4
	c-0.3-0.1-0.7-0.1-1-0.2c-0.4-0.6-1.8-1.5-2.2-1.6c-0.2,0-0.4-0.1-0.5-0.1c-0.4-0.1-0.8-0.2-1-0.2c-0.3,0-0.6,0-0.9-0.1
	c-0.4-0.1-0.9-0.2-1.6-0.1l-0.2,0c-0.6,0.1-1.2,0.1-1.8,0.1c-0.5,0-1,0.1-1.4,0.2c-0.1,0-0.3,0.1-0.4,0.1c-0.3,0.1-0.5,0.2-0.7,0.3
	c-0.1,0.1-0.3,0.2-0.4,0.2c-0.2,0-0.4,0.1-0.6,0.1c-0.2,0-0.4,0.1-0.6,0.1c-0.3,0.1-0.5,0.4-0.6,0.7C7.3,34.7,6,34.8,5.1,35
	c0.1-0.6,0.2-1.1,0.2-1.4c0.1-0.7,0.1-1.8,0.1-2.8c0-1,0-2,0.1-2.7c0.2-1.2,0.5-2.4,0.8-3.3c0-0.2,0.1-0.3,0.1-0.4
	c0.1-0.5,0.3-1.2,0.4-1.9c0.1-0.5,0.2-1.1,0.3-1.5c0.3-1,1.3-3.1,2-3.7c0.3-0.2,0.7-0.7,1.3-1.4c1.2-1.4,3-3.2,3.9-3.7
	c1.5-0.7,7-0.7,13.3-0.7c4.1,0,7.5,0.8,9.7,1.5c1.7,0.8,2.8,1.5,3.3,2.3c1.6,2,2.7,4.9,2.7,4.9c0,0.1,0.1,0.1,0.1,0.1
	c0.1,0,0.1-0.1,0.1-0.1c0,0,0.1-0.7,0.1-1.6c0.6,0.8,1.3,1.9,1.5,2.4c0.1,0.4,0.3,1.1,0.4,1.7c0.1,0.6,0.2,1.2,0.4,1.6
	c0,0.1,0.1,0.3,0.1,0.4c0.3,0.9,0.6,2.1,0.8,3.3c0.1,0.7,0.1,1.7,0.1,2.7c0,1,0,2.1,0.1,2.8c0,0.4,0.1,0.8,0.2,1.4
	c-0.9-0.1-2.1-0.3-3.5-0.4c-0.1-0.3-0.3-0.6-0.6-0.7c-0.2,0-0.4-0.1-0.6-0.1c-0.2,0-0.4-0.1-0.6-0.1c-0.2,0-0.3-0.1-0.4-0.2
	c-0.2-0.1-0.4-0.2-0.7-0.3c-0.1,0-0.3-0.1-0.4-0.1c-0.4-0.1-0.9-0.2-1.4-0.2c-0.6,0-1.2-0.1-1.8-0.1l-0.1,0c-0.7-0.1-1.2,0-1.6,0.1
	C35.3,32.9,35,33,34.7,33c-0.2,0-0.6,0.1-1,0.2c-0.2,0.1-0.4,0.1-0.5,0.1c-0.5,0.1-1.8,1-2.2,1.6c-0.3,0.1-0.7,0.1-1,0.1
	C28.5,35.3,27.3,35.5,26.4,35.5z M43.8,47c-1.5,1.3-3.5,1.5-5.1,1.5c-7.6,0-8.7-6.2-8.7-9.9c0-1.4,1.1-2.8,9.1-2.8
	c2.7,0,4.4,0.3,5.5,0.9c1.1,0.6,1.5,1.5,1.5,3C46.1,43.2,45.3,45.6,43.8,47z M47.9,37.5c-0.7,0-1.2-0.3-1.2-0.6
	c0-0.2,0.6-0.6,1.2-0.6c0.7,0,1.2,0.2,1.2,0.6C49.1,37.3,48.6,37.5,47.9,37.5z"/>
</svg>
