<?xml version="1.0" encoding="utf-8"?>
<!-- Generator: Adobe Illustrator 21.0.0, SVG Export Plug-In . SVG Version: 6.00 Build 0)  -->
<svg version="1.1" id="Layer_1" xmlns="http://www.w3.org/2000/svg" xmlns:xlink="http://www.w3.org/1999/xlink" x="0px" y="0px"
	 viewBox="0 0 52.7 52.7" style="enable-background:new 0 0 52.7 52.7;" xml:space="preserve">
<g>
	<path d="M63,99.9H46.6c-2.5,0-4.5,2-4.5,4.5V140c0,2.5,2,4.5,4.5,4.5H63c2.5,0,4.5-2,4.5-4.5v-35.7C67.4,101.9,65.4,99.9,63,99.9z
		 M46.6,101.4H63c1.6,0,3,1.3,3,3v4.5H43.7v-4.5C43.7,102.7,45,101.4,46.6,101.4z M66,110.3V137H43.7v-26.8H66z M63,143H46.6
		c-1.6,0-3-1.3-3-3v-1.5H66v1.5C66,141.7,64.6,143,63,143z"/>
	<rect x="53.3" y="140" width="3" height="1.5"/>
	<rect x="49.6" y="104.3" width="1.5" height="1.5"/>
	<rect x="52.6" y="104.3" width="7.4" height="1.5"/>
</g>
<path d="M145,132.7L145,132.7c0,0,0-0.1,0-0.2c0,0,0,0,0,0c0,0,0,0,0,0c0-0.1-0.1-0.1-0.1-0.1c0,0,0-0.1,0-0.1c0,0-0.1-0.1-0.1-0.1
	c0,0,0,0,0,0c-0.1,0-0.1-0.1-0.2-0.1c-0.1,0-0.1,0-0.2,0h-36.6c-0.1,0-0.1,0-0.2,0c0,0-0.1,0-0.1,0c-0.1,0-0.1,0.1-0.2,0.1
	c0,0,0,0,0,0c-0.1,0-0.1,0.1-0.1,0.1c0,0,0,0,0,0.1c0,0-0.1,0.1-0.1,0.2l0,0c0,0,0,0,0,0.1c0,0.1,0,0.1,0,0.2c0,0,0,0.1,0,0.1v24.8
	c0,0.4,0.3,0.8,0.8,0.8h36.6c0.4,0,0.8-0.3,0.8-0.8L145,132.7C145,132.8,145,132.7,145,132.7z M109.6,133.5h32.6l-16.3,14.9
	L109.6,133.5z M108.4,156.8v-22.3l17,15.5c0.3,0.3,0.8,0.3,1,0l17-15.5v22.3H108.4z M107.2,132.7L107.2,132.7L107.2,132.7
	L107.2,132.7z"/>
<g>
	<path d="M41.3,19C41.3,19,41.3,19,41.3,19l-0.2-1c-0.1-0.4-0.1-0.8-0.2-1.3c-0.2-0.8-0.4-1.6-0.8-2.4c-0.3-0.8-0.7-1.5-1.1-2.1
		c0,0,0-0.1,0-0.1c-0.3-0.5-0.7-1-1.1-1.5c-0.4-0.5-0.9-0.9-1.3-1.4l-0.2-0.2c-0.5-0.5-1.1-1-2-1.5c-0.9-0.6-1.6-0.9-2.4-1.2
		l-0.2-0.1c-0.5-0.2-1.1-0.4-1.6-0.5c-0.5-0.1-1-0.2-1.4-0.3l-0.2,0c-0.2,0-0.5-0.1-0.7-0.1l-0.1,0c-0.1,0-0.2-0.1-0.3-0.1h-2.3
		c0,0-0.1,0-0.1,0l-0.2,0c-0.1,0-0.3,0-0.4,0.1L24,5.3c-0.5,0.1-1,0.2-1.4,0.3c-0.7,0.2-1.3,0.4-1.9,0.6c-0.7,0.3-1.4,0.6-2,1
		C18.1,7.6,17.5,8,17,8.4c-0.5,0.4-1,0.9-1.4,1.3l-0.2,0.2c-0.6,0.6-1.1,1.3-1.5,1.9c-0.6,1-1.1,1.8-1.4,2.7c0,0.1-0.1,0.2-0.1,0.3
		c-0.1,0.2-0.2,0.6-0.3,0.9c-0.2,0.7-0.3,1.4-0.4,2c-0.1,0.5-0.1,0.9-0.1,1.3l0,0.3c0,0.4-0.1,0.7,0,1.1c0,0.5,0.1,1,0.1,1.6
		c0.1,0.8,0.2,1.4,0.4,2c0.3,1,0.7,2.1,1.3,3.1c0.2,0.4,0.5,0.9,0.7,1.3l0.9,1.6c0.1,0.2,0.2,0.4,0.4,0.7c0.2,0.3,0.3,0.5,0.5,0.8
		l1.2,2.1c0.1,0.2,0.2,0.4,0.3,0.6L24,45.9c0.1,0.2,0.2,0.3,0.3,0.5c0.5,0.7,1.1,1.1,2,1.2c0,0,0.1,0,0.1,0c0.9,0,1.7-0.5,2.2-1.4
		c0.2-0.4,0.4-0.7,0.6-1.1l3.5-6c0.4-0.6,0.7-1.2,1.1-1.9c0.2-0.3,0.4-0.7,0.6-1l2.8-5c0.2-0.3,0.3-0.5,0.5-0.8l0.7-1.3
		c0.3-0.5,0.6-1,0.8-1.5c0.2-0.5,0.5-1,0.7-1.5c0.4-0.9,0.8-1.9,0.9-2.8c0.1-0.3,0.1-0.7,0.2-1l0.1-0.5c0-0.2,0.1-0.3,0.1-0.5l0-0.2
		c0,0,0-0.1,0-0.1v-1.9C41.3,19,41.3,19,41.3,19z M41,19L41,19L41,19L41,19z M25.7,45.5c-0.1-0.1-0.2-0.3-0.3-0.4l-7.2-12.5
		c-0.1-0.3-0.3-0.5-0.4-0.8L17.4,31c-0.2-0.4-0.4-0.7-0.6-1.1c-0.2-0.3-0.3-0.6-0.5-0.9l-0.8-1.4c-0.2-0.4-0.5-0.8-0.7-1.3
		c-0.5-0.9-0.9-1.8-1.1-2.7c-0.1-0.5-0.2-1.1-0.4-1.8c-0.1-0.5-0.1-1-0.1-1.4c0-0.3,0-0.6,0-1l0-0.3c0-0.4,0.1-0.8,0.1-1.1
		c0.1-0.6,0.2-1.1,0.4-1.8c0.1-0.2,0.1-0.4,0.2-0.7c0-0.1,0.1-0.3,0.1-0.4c0.3-0.7,0.7-1.5,1.2-2.3c0.3-0.5,0.7-1.1,1.3-1.6l0.2-0.2
		c0.4-0.4,0.8-0.8,1.2-1.2c0.4-0.4,0.9-0.7,1.5-1c0.6-0.3,1.2-0.6,1.9-0.9c0.5-0.2,1-0.4,1.6-0.6c0.4-0.1,0.8-0.2,1.3-0.3l0.5-0.1
		c0.1,0,0.2,0,0.3,0l0.1,0h2.1c0,0,0.1,0,0.1,0l0.4,0c0.2,0,0.3,0,0.5,0.1l0.2,0c0.5,0.1,0.9,0.1,1.2,0.3c0.5,0.2,1.1,0.4,1.6,0.5
		l0.1,0c0.6,0.2,1.3,0.6,2,1.1c0.7,0.5,1.3,0.9,1.7,1.3l0.2,0.2c0.4,0.4,0.9,0.9,1.3,1.3c0.3,0.4,0.7,0.9,1,1.3l0.2-0.2l0,0
		l-0.2,0.3c0.4,0.5,0.7,1.2,1,1.9c0.3,0.7,0.5,1.4,0.7,2.1c0.1,0.4,0.1,0.8,0.2,1.2l0.1,0.6l0.1,2.2l-0.2,1c-0.1,0.3-0.1,0.7-0.2,1
		c-0.2,0.8-0.4,1.6-0.8,2.5c-0.2,0.5-0.5,0.9-0.7,1.4c-0.3,0.5-0.6,1.1-0.9,1.6c-0.2,0.3-0.4,0.6-0.6,1c-0.2,0.3-0.4,0.7-0.6,1
		l-0.6,1.1c-0.1,0.3-0.3,0.5-0.4,0.8c-0.2,0.4-0.5,0.8-0.7,1.2l-1.7,2.9c-0.5,0.9-1,1.7-1.5,2.6l-0.4,0.7c-0.2,0.3-0.3,0.6-0.5,0.8
		l-1.1,1.9c-0.2,0.4-0.5,0.9-0.7,1.3c-0.1,0.2-0.2,0.4-0.3,0.6c-0.2,0.4-0.4,0.7-0.6,1.1c-0.2,0.4-0.5,0.5-0.8,0.5
		C26.1,45.9,25.9,45.8,25.7,45.5z M26.4,47.3L26.4,47.3L26.4,47.3L26.4,47.3z"/>
	<path d="M33.5,21.6c0.1-2-0.5-3.7-1.8-5.1c-1.3-1.5-3-2.3-5-2.3c-2-0.1-3.9,0.6-5.3,2c-1.3,1.2-2,2.9-2.2,4.6
		c-0.1,2.1,0.5,4,1.9,5.5c1.4,1.5,3.1,2.2,5.2,2.2C30.1,28.3,33.3,25.3,33.5,21.6z M31.8,21.5c-0.1,2.8-2.6,5.1-5.4,5.1
		c-1.6,0-2.9-0.6-4-1.7c-1.1-1.2-1.6-2.6-1.5-4.2c0.2-3.1,3-5,5.5-5c0.1,0,0.1,0,0.2,0c1.5,0.1,2.7,0.7,3.8,1.8
		C31.4,18.7,31.9,20,31.8,21.5z"/>
</g>
<path d="M33.4,154.9L33.4,154.9c0,0-0.5-0.1-1.3-0.2c0.1-0.7,0.1-1.3,0.1-1.7c0-0.4,0-0.9,0-1.5c0-2,0.1-5.1,0.2-6.7
	c0.1-1.8-0.3-3.4-0.6-4.5c-0.1-0.2-0.1-0.4-0.1-0.6c-0.1-0.5-0.3-0.9-0.5-1.2c-0.1-0.3-0.3-0.5-0.3-0.6c0-0.2-0.3-0.8-0.7-1.6
	c-0.2-0.3-0.3-0.7-0.4-0.8c-0.1-0.2-0.4-0.7-0.6-1.1l-0.1-0.1c-0.7-2-1.5-3.4-2.4-4.2c-0.2-0.2-0.3-0.3-0.5-0.5
	c-2.4-2.3-5.2-4.9-9.5-6.2c-2.3-0.7-6.4-1.1-10.2-1c-2.6,0.1-7.1,0.6-8.3,2.4c-1,1.6-1.6,2.5-1.8,2.7c-0.5,0.1-4,0.8-5.3,3.3
	c-1.4,2.8-3,7-3.1,8.9c0,0.1-0.1,0.3-0.1,0.5c-0.3,1-0.7,2.7-0.6,4.5c0.1,1.6,0.1,4.6,0.2,6.7c0,0.6,0,1.2,0,1.5c0,0.4,0,1,0.1,1.8
	c-0.7,0.1-1.1,0.2-1.1,0.2c-0.2,0-0.4,0.3-0.4,0.5c0,0.1,0.3,2.3,0.3,2.5c0,0.2,0.2,0.3,0.4,0.3c1,0.2,1.2,1.5,1.6,3.2
	c0.4,1.7,0.8,3.7,2.1,5.4c1.5,1.9,3.8,2.8,7,2.8c7.3,0,8.9-4.4,10-7.6c0.6-1.8,1.1-3.2,2.4-3.2s1.8,1.4,2.4,3.2
	c1.1,3.2,2.7,7.6,10,7.6c3.3,0,5.6-0.9,7-2.8c1.3-1.6,1.7-3.7,2.1-5.4c0.4-1.7,0.6-3,1.6-3.2c0.2,0,0.3-0.2,0.4-0.3
	c0-0.2,0.3-2.4,0.3-2.5C33.8,155.2,33.7,155,33.4,154.9z M-11.5,157.2c-0.7,0-1.2-0.3-1.2-0.6s0.6-0.6,1.2-0.6
	c0.7,0,1.2,0.2,1.2,0.6C-10.2,156.9-10.8,157.2-11.5,157.2z M-2.3,168.1c-1.6,0-3.6-0.2-5.1-1.5c-1.6-1.4-2.3-3.8-2.3-7.3
	c0-1.5,0.5-2.4,1.5-3c1.1-0.6,2.8-0.9,5.5-0.9c8,0,9.1,1.4,9.1,2.8C6.4,161.9,5.3,168.1-2.3,168.1z M10,155.1c-1,0-2.1-0.2-3.6-0.4
	c-0.3-0.1-0.7-0.1-1-0.2C5,154,3.7,153.1,3.2,153c-0.2,0-0.4-0.1-0.5-0.1c-0.4-0.1-0.8-0.2-1-0.2c-0.3,0-0.6,0-0.9-0.1
	c-0.4-0.1-0.9-0.2-1.6-0.1l-0.2,0c-0.6,0.1-1.2,0.1-1.8,0.1c-0.5,0-1,0.1-1.4,0.2c-0.1,0-0.3,0.1-0.4,0.1c-0.3,0.1-0.5,0.2-0.7,0.3
	c-0.1,0.1-0.3,0.2-0.4,0.2c-0.2,0-0.4,0.1-0.6,0.1c-0.2,0-0.4,0.1-0.6,0.1c-0.3,0.1-0.5,0.4-0.6,0.7c-1.4,0.1-2.7,0.3-3.6,0.4
	c0.1-0.6,0.2-1.1,0.2-1.4c0.1-0.7,0.1-1.8,0.1-2.8c0-1,0-2,0.1-2.7c0.2-1.2,0.5-2.4,0.8-3.3c0-0.2,0.1-0.3,0.1-0.4
	c0.1-0.5,0.3-1.2,0.4-1.9c0.1-0.5,0.2-1.1,0.3-1.5c0.3-1,1.3-3.1,2-3.7c0.3-0.2,0.7-0.7,1.3-1.4c1.2-1.4,3-3.2,3.9-3.7
	c1.5-0.7,7-0.7,13.3-0.7c4.1,0,7.5,0.8,9.7,1.5c1.7,0.8,2.8,1.5,3.3,2.3c1.6,2,2.7,4.9,2.7,4.9c0,0.1,0.1,0.1,0.1,0.1
	c0.1,0,0.1-0.1,0.1-0.1c0,0,0.1-0.7,0.1-1.6c0.6,0.8,1.3,1.9,1.5,2.4c0.1,0.4,0.3,1.1,0.4,1.7c0.1,0.6,0.2,1.2,0.4,1.6
	c0,0.1,0.1,0.3,0.1,0.4c0.3,0.9,0.6,2.1,0.8,3.3c0.1,0.7,0.1,1.7,0.1,2.7c0,1,0,2.1,0.1,2.8c0,0.4,0.1,0.8,0.2,1.4
	c-0.9-0.1-2.1-0.3-3.5-0.4c-0.1-0.3-0.3-0.6-0.6-0.7c-0.2,0-0.4-0.1-0.6-0.1c-0.2,0-0.4-0.1-0.6-0.1c-0.2,0-0.3-0.1-0.4-0.2
	c-0.2-0.1-0.4-0.2-0.7-0.3c-0.1,0-0.3-0.1-0.4-0.1c-0.4-0.1-0.9-0.2-1.4-0.2c-0.6,0-1.2-0.1-1.8-0.1l-0.1,0c-0.7-0.1-1.2,0-1.6,0.1
	c-0.3,0.1-0.6,0.1-0.9,0.1c-0.2,0-0.6,0.1-1,0.2c-0.2,0.1-0.4,0.1-0.5,0.1c-0.5,0.1-1.8,1-2.2,1.6c-0.3,0.1-0.7,0.1-1,0.1
	C12.2,155,11,155.1,10,155.1z M27.4,166.7c-1.5,1.3-3.5,1.5-5.1,1.5c-7.6,0-8.7-6.2-8.7-9.9c0-1.4,1.1-2.8,9.1-2.8
	c2.7,0,4.4,0.3,5.5,0.9c1.1,0.6,1.5,1.5,1.5,3C29.8,162.9,29,165.3,27.4,166.7z M31.6,157.2c-0.7,0-1.2-0.3-1.2-0.6s0.6-0.6,1.2-0.6
	c0.7,0,1.2,0.2,1.2,0.6C32.8,156.9,32.2,157.2,31.6,157.2z"/>
</svg>
